<mxfile host="app.diagrams.net" modified="2021-03-25T12:00:10.953Z" agent="5.0 (Windows NT 10.0; Win64; x64) AppleWebKit/537.36 (KHTML, like Gecko) Chrome/89.0.4389.90 Safari/537.36" etag="jmL2P4yxPLCEOjztn7Wf" version="14.5.1" type="github">
  <diagram name="Page-1" id="74e2e168-ea6b-b213-b513-2b3c1d86103e">
    <mxGraphModel dx="1564" dy="760" grid="1" gridSize="10" guides="1" tooltips="1" connect="1" arrows="1" fold="1" page="1" pageScale="1" pageWidth="1100" pageHeight="850" background="#ffffff" math="0" shadow="0">
      <root>
        <mxCell id="0" />
        <mxCell id="1" parent="0" />
        <mxCell id="oamlNQaIL3hw887rwdoa-4" style="edgeStyle=orthogonalEdgeStyle;rounded=0;orthogonalLoop=1;jettySize=auto;html=1;exitX=1;exitY=0.5;exitDx=0;exitDy=0;entryX=0;entryY=0.5;entryDx=0;entryDy=0;" edge="1" parent="1" source="oamlNQaIL3hw887rwdoa-1" target="oamlNQaIL3hw887rwdoa-3">
          <mxGeometry relative="1" as="geometry">
            <Array as="points">
              <mxPoint x="340" y="355" />
              <mxPoint x="340" y="410" />
            </Array>
          </mxGeometry>
        </mxCell>
        <mxCell id="oamlNQaIL3hw887rwdoa-9" style="edgeStyle=orthogonalEdgeStyle;rounded=0;orthogonalLoop=1;jettySize=auto;html=1;entryX=0;entryY=0.5;entryDx=0;entryDy=0;" edge="1" parent="1" source="oamlNQaIL3hw887rwdoa-1" target="oamlNQaIL3hw887rwdoa-7">
          <mxGeometry relative="1" as="geometry" />
        </mxCell>
        <mxCell id="oamlNQaIL3hw887rwdoa-1" value="NGS_Avans_3.1.fastq" style="rounded=0;whiteSpace=wrap;html=1;fillColor=#f8cecc;strokeColor=#B85450;" vertex="1" parent="1">
          <mxGeometry x="130" y="330" width="150" height="50" as="geometry" />
        </mxCell>
        <mxCell id="oamlNQaIL3hw887rwdoa-5" style="edgeStyle=orthogonalEdgeStyle;rounded=0;orthogonalLoop=1;jettySize=auto;html=1;exitX=1;exitY=0.5;exitDx=0;exitDy=0;entryX=0;entryY=0.5;entryDx=0;entryDy=0;" edge="1" parent="1" source="oamlNQaIL3hw887rwdoa-2" target="oamlNQaIL3hw887rwdoa-3">
          <mxGeometry relative="1" as="geometry" />
        </mxCell>
        <mxCell id="oamlNQaIL3hw887rwdoa-8" style="edgeStyle=orthogonalEdgeStyle;rounded=0;orthogonalLoop=1;jettySize=auto;html=1;entryX=0.006;entryY=0.617;entryDx=0;entryDy=0;entryPerimeter=0;" edge="1" parent="1" source="oamlNQaIL3hw887rwdoa-2" target="oamlNQaIL3hw887rwdoa-6">
          <mxGeometry relative="1" as="geometry" />
        </mxCell>
        <mxCell id="oamlNQaIL3hw887rwdoa-2" value="NGS_Avans_3.2.fastq" style="rounded=0;whiteSpace=wrap;html=1;fillColor=#f8cecc;strokeColor=#B85450;" vertex="1" parent="1">
          <mxGeometry x="130" y="440" width="150" height="50" as="geometry" />
        </mxCell>
        <mxCell id="oamlNQaIL3hw887rwdoa-10" style="edgeStyle=orthogonalEdgeStyle;rounded=0;orthogonalLoop=1;jettySize=auto;html=1;entryX=0.5;entryY=1;entryDx=0;entryDy=0;" edge="1" parent="1" source="oamlNQaIL3hw887rwdoa-3" target="oamlNQaIL3hw887rwdoa-7">
          <mxGeometry relative="1" as="geometry" />
        </mxCell>
        <mxCell id="oamlNQaIL3hw887rwdoa-11" style="edgeStyle=orthogonalEdgeStyle;rounded=0;orthogonalLoop=1;jettySize=auto;html=1;entryX=0.5;entryY=0;entryDx=0;entryDy=0;" edge="1" parent="1" source="oamlNQaIL3hw887rwdoa-3" target="oamlNQaIL3hw887rwdoa-6">
          <mxGeometry relative="1" as="geometry" />
        </mxCell>
        <mxCell id="oamlNQaIL3hw887rwdoa-13" style="edgeStyle=orthogonalEdgeStyle;rounded=0;orthogonalLoop=1;jettySize=auto;html=1;exitX=1;exitY=0.5;exitDx=0;exitDy=0;entryX=0;entryY=0.5;entryDx=0;entryDy=0;" edge="1" parent="1" source="oamlNQaIL3hw887rwdoa-3" target="oamlNQaIL3hw887rwdoa-12">
          <mxGeometry relative="1" as="geometry" />
        </mxCell>
        <mxCell id="oamlNQaIL3hw887rwdoa-3" value="Sickle" style="shape=process;whiteSpace=wrap;html=1;backgroundOutline=1;strokeColor=#009900;fillColor=#80FF00;" vertex="1" parent="1">
          <mxGeometry x="400" y="380" width="120" height="60" as="geometry" />
        </mxCell>
        <mxCell id="oamlNQaIL3hw887rwdoa-6" value="FastQC" style="shape=process;whiteSpace=wrap;html=1;backgroundOutline=1;fillColor=#dae8fc;strokeColor=#6c8ebf;" vertex="1" parent="1">
          <mxGeometry x="400" y="480" width="120" height="60" as="geometry" />
        </mxCell>
        <mxCell id="oamlNQaIL3hw887rwdoa-7" value="FastQC" style="shape=process;whiteSpace=wrap;html=1;backgroundOutline=1;fillColor=#dae8fc;strokeColor=#6c8ebf;" vertex="1" parent="1">
          <mxGeometry x="400" y="260" width="120" height="60" as="geometry" />
        </mxCell>
        <mxCell id="oamlNQaIL3hw887rwdoa-15" style="edgeStyle=orthogonalEdgeStyle;rounded=0;orthogonalLoop=1;jettySize=auto;html=1;exitX=1;exitY=0.5;exitDx=0;exitDy=0;entryX=0;entryY=0.5;entryDx=0;entryDy=0;" edge="1" parent="1" source="oamlNQaIL3hw887rwdoa-12" target="oamlNQaIL3hw887rwdoa-14">
          <mxGeometry relative="1" as="geometry" />
        </mxCell>
        <mxCell id="oamlNQaIL3hw887rwdoa-17" style="edgeStyle=orthogonalEdgeStyle;rounded=0;orthogonalLoop=1;jettySize=auto;html=1;entryX=0;entryY=0.5;entryDx=0;entryDy=0;" edge="1" parent="1" source="oamlNQaIL3hw887rwdoa-12" target="oamlNQaIL3hw887rwdoa-16">
          <mxGeometry relative="1" as="geometry" />
        </mxCell>
        <mxCell id="oamlNQaIL3hw887rwdoa-19" style="edgeStyle=orthogonalEdgeStyle;rounded=0;orthogonalLoop=1;jettySize=auto;html=1;entryX=0.5;entryY=0;entryDx=0;entryDy=0;" edge="1" parent="1" source="oamlNQaIL3hw887rwdoa-12" target="oamlNQaIL3hw887rwdoa-18">
          <mxGeometry relative="1" as="geometry" />
        </mxCell>
        <mxCell id="oamlNQaIL3hw887rwdoa-23" style="edgeStyle=orthogonalEdgeStyle;rounded=0;orthogonalLoop=1;jettySize=auto;html=1;entryX=0;entryY=0.5;entryDx=0;entryDy=0;" edge="1" parent="1" source="oamlNQaIL3hw887rwdoa-12" target="oamlNQaIL3hw887rwdoa-22">
          <mxGeometry relative="1" as="geometry" />
        </mxCell>
        <mxCell id="oamlNQaIL3hw887rwdoa-25" style="edgeStyle=orthogonalEdgeStyle;rounded=0;orthogonalLoop=1;jettySize=auto;html=1;entryX=0;entryY=0.5;entryDx=0;entryDy=0;" edge="1" parent="1" source="oamlNQaIL3hw887rwdoa-12" target="oamlNQaIL3hw887rwdoa-24">
          <mxGeometry relative="1" as="geometry" />
        </mxCell>
        <mxCell id="oamlNQaIL3hw887rwdoa-12" value="Shovil" style="shape=process;whiteSpace=wrap;html=1;backgroundOutline=1;strokeColor=#d6b656;fillColor=#fff2cc;" vertex="1" parent="1">
          <mxGeometry x="600" y="380" width="120" height="60" as="geometry" />
        </mxCell>
        <mxCell id="oamlNQaIL3hw887rwdoa-21" style="edgeStyle=orthogonalEdgeStyle;rounded=0;orthogonalLoop=1;jettySize=auto;html=1;entryX=0;entryY=0.5;entryDx=0;entryDy=0;" edge="1" parent="1" source="oamlNQaIL3hw887rwdoa-14" target="oamlNQaIL3hw887rwdoa-20">
          <mxGeometry relative="1" as="geometry" />
        </mxCell>
        <mxCell id="oamlNQaIL3hw887rwdoa-14" value="AUGUSTUS" style="shape=process;whiteSpace=wrap;html=1;backgroundOutline=1;strokeColor=#6c8ebf;fillColor=#8BF8FC;" vertex="1" parent="1">
          <mxGeometry x="800" y="260" width="120" height="60" as="geometry" />
        </mxCell>
        <mxCell id="oamlNQaIL3hw887rwdoa-16" value="NCBI BLAST + blastn" style="shape=process;whiteSpace=wrap;html=1;backgroundOutline=1;strokeColor=#9673a6;fillColor=#e1d5e7;" vertex="1" parent="1">
          <mxGeometry x="800" y="380" width="120" height="60" as="geometry" />
        </mxCell>
        <mxCell id="oamlNQaIL3hw887rwdoa-18" value="QUAST" style="shape=process;whiteSpace=wrap;html=1;backgroundOutline=1;fillColor=#dae8fc;strokeColor=#6c8ebf;" vertex="1" parent="1">
          <mxGeometry x="600" y="480" width="120" height="60" as="geometry" />
        </mxCell>
        <mxCell id="oamlNQaIL3hw887rwdoa-20" value="ABRicate" style="shape=process;whiteSpace=wrap;html=1;backgroundOutline=1;strokeColor=#0066CC;fillColor=#8BF8FC;" vertex="1" parent="1">
          <mxGeometry x="960" y="260" width="120" height="60" as="geometry" />
        </mxCell>
        <mxCell id="oamlNQaIL3hw887rwdoa-22" value="MLST" style="shape=process;whiteSpace=wrap;html=1;backgroundOutline=1;strokeColor=#9673a6;fillColor=#e1d5e7;" vertex="1" parent="1">
          <mxGeometry x="800" y="480" width="120" height="60" as="geometry" />
        </mxCell>
        <mxCell id="oamlNQaIL3hw887rwdoa-24" value="Bandage" style="shape=process;whiteSpace=wrap;html=1;backgroundOutline=1;strokeColor=#d79b00;fillColor=#ffe6cc;" vertex="1" parent="1">
          <mxGeometry x="800" y="580" width="120" height="60" as="geometry" />
        </mxCell>
      </root>
    </mxGraphModel>
  </diagram>
</mxfile>
